<?xml version="1.0" encoding="utf-8"?>
<!-- Generator: Adobe Illustrator 15.0.0, SVG Export Plug-In  -->
<!DOCTYPE svg PUBLIC "-//W3C//DTD SVG 1.1//EN" "http://www.w3.org/Graphics/SVG/1.1/DTD/svg11.dtd" [
	<!ENTITY ns_flows "http://ns.adobe.com/Flows/1.0/">
]>
<svg version="1.1"
	 xmlns="http://www.w3.org/2000/svg" xmlns:xlink="http://www.w3.org/1999/xlink" xmlns:a="http://ns.adobe.com/AdobeSVGViewerExtensions/3.0/"
	 x="0px" y="0px" width="21px" height="21px" viewBox="0 0 21 21" overflow="visible" enable-background="new 0 0 21 21"
	 xml:space="preserve">
<defs>
</defs>
<path d="M10.488,6.586c2.437,0,4.412,1.976,4.412,4.414h-2.206l3.163,5.359L19,11h-2.208c0-3.481-2.822-6.304-6.304-6.304"/>
<path d="M10.488,6.586c2.437,0,4.412,1.976,4.412,4.414h-2.206l3.163,5.359L19,11h-2.208c0-3.481-2.822-6.304-6.304-6.304V6.586z"/>
<path d="M10.512,17.304c-3.481,0-6.304-2.822-6.304-6.304H2l3.143-5.359L8.306,11H6.1c0,2.438,1.976,4.414,4.412,4.414V17.304z"/>
<rect opacity="0" fill="#4387FD" width="21" height="21"/>
</svg>
