<?xml version="1.0" encoding="utf-8"?>
<!-- Generator: Adobe Illustrator 18.1.1, SVG Export Plug-In . SVG Version: 6.00 Build 0)  -->
<svg version="1.1" id="Layer_1" xmlns="http://www.w3.org/2000/svg" xmlns:xlink="http://www.w3.org/1999/xlink" x="0px" y="0px"
	 viewBox="-209 301 192 192" enable-background="new -209 301 192 192" xml:space="preserve">
<path fill="none" d="M-209,301h192v192h-192V301z"/>
<g>
	<defs>
		<path id="SVGID_1_" d="M-29,349c0-5.2-3.3-9.6-8-11.3V325c0-6.6-5.4-12-12-12h-128c-6.6,0-12,5.4-12,12l0,12.7
			c-4.7,1.6-8,6.1-8,11.3c0,0.6,0,1.1,0.1,1.6l7.9,58.4l-4,59.2c0,0.3,0,0.6,0,0.8c0,6.6,5.4,12,12,12h136c6.6,0,12-5.4,12-12
			c0-0.3,0-0.5,0-0.8l-4-59.2l7.9-58.4C-29,350.1-29,349.6-29,349z"/>
	</defs>
	<clipPath id="SVGID_2_">
		<use xlink:href="#SVGID_1_"  overflow="visible"/>
	</clipPath>
	<path clip-path="url(#SVGID_2_)" fill="#C2C2C2" d="M-49,313h-128c-6.6,0-12,5.4-12,12l0.2,84H-37v-84C-37,318.4-42.4,313-49,313z"
		/>
</g>
<g>
	<defs>
		<path id="SVGID_3_" d="M-29,349c0-5.2-3.3-9.6-8-11.3V325c0-6.6-5.4-12-12-12h-128c-6.6,0-12,5.4-12,12l0,12.7
			c-4.7,1.6-8,6.1-8,11.3c0,0.6,0,1.1,0.1,1.6l7.9,58.4l-4,59.2c0,0.3,0,0.6,0,0.8c0,6.6,5.4,12,12,12h136c6.6,0,12-5.4,12-12
			c0-0.3,0-0.5,0-0.8l-4-59.2l7.9-58.4C-29,350.1-29,349.6-29,349z"/>
	</defs>
	<clipPath id="SVGID_4_">
		<use xlink:href="#SVGID_3_"  overflow="visible"/>
	</clipPath>
	<g clip-path="url(#SVGID_4_)">
		
			<image overflow="visible" opacity="0.2" enable-background="new    " width="800" height="404" xlink:href="B3BB3C162D74EF45.png"  transform="matrix(0.24 0 0 0.2382 -209 329)">
		</image>
		<path fill="#3367D6" d="M-41,337h-144c-6.6,0-12,5.4-12,12c0,0.6,0,1.1,0.1,1.6l7.9,58.4h152l7.9-58.4c0.1-0.5,0.1-1.1,0.1-1.6
			C-29,342.4-34.4,337-41,337z"/>
		<path opacity="0.5" fill="#2A56C6" enable-background="new    " d="M-41,337h-144c-6.6,0-12,5.4-12,12c0,0.6,0,1.1,0.1,1.6
			l7.9,58.4h152l7.9-58.4c0.1-0.5,0.1-1.1,0.1-1.6C-29,342.4-34.4,337-41,337z"/>
	</g>
</g>
<g>
	<defs>
		<path id="SVGID_5_" d="M-29,349c0-5.2-3.3-9.6-8-11.3V325c0-6.6-5.4-12-12-12h-128c-6.6,0-12,5.4-12,12l0,12.7
			c-4.7,1.6-8,6.1-8,11.3c0,0.6,0,1.1,0.1,1.6l7.9,58.4l-4,59.2c0,0.3,0,0.6,0,0.8c0,6.6,5.4,12,12,12h136c6.6,0,12-5.4,12-12
			c0-0.3,0-0.5,0-0.8l-4-59.2l7.9-58.4C-29,350.1-29,349.6-29,349z"/>
	</defs>
	<clipPath id="SVGID_6_">
		<use xlink:href="#SVGID_5_"  overflow="visible"/>
	</clipPath>
	<path clip-path="url(#SVGID_6_)" fill="#4285F4" d="M-33,468.2l-4-59.2h-152l-4,59.2c0,0.3,0,0.6,0,0.8c0,6.6,5.4,12,12,12h136
		c6.6,0,12-5.4,12-12C-33,468.7-33,468.5-33,468.2z"/>
</g>
<g>
	<defs>
		<path id="SVGID_7_" d="M-29,349c0-5.2-3.3-9.6-8-11.3V325c0-6.6-5.4-12-12-12h-128c-6.6,0-12,5.4-12,12l0,12.7
			c-4.7,1.6-8,6.1-8,11.3c0,0.6,0,1.1,0.1,1.6l7.9,58.4l-4,59.2c0,0.3,0,0.6,0,0.8c0,6.6,5.4,12,12,12h136c6.6,0,12-5.4,12-12
			c0-0.3,0-0.5,0-0.8l-4-59.2l7.9-58.4C-29,350.1-29,349.6-29,349z"/>
	</defs>
	<clipPath id="SVGID_8_">
		<use xlink:href="#SVGID_7_"  overflow="visible"/>
	</clipPath>
	
		<linearGradient id="SVGID_9_" gradientUnits="userSpaceOnUse" x1="-149.625" y1="425.625" x2="-77.747" y2="353.747" gradientTransform="matrix(1 0 0 -1 0 796)">
		<stop  offset="0" style="stop-color:#1A237E;stop-opacity:0.2"/>
		<stop  offset="1" style="stop-color:#1A237E;stop-opacity:2.000000e-02"/>
	</linearGradient>
	<path clip-path="url(#SVGID_8_)" fill="url(#SVGID_9_)" d="M-189,409l72,72h84v-72H-189z"/>
</g>
<g>
	<defs>
		<path id="SVGID_10_" d="M-29,349c0-5.2-3.3-9.6-8-11.3V325c0-6.6-5.4-12-12-12h-128c-6.6,0-12,5.4-12,12l0,12.7
			c-4.7,1.6-8,6.1-8,11.3c0,0.6,0,1.1,0.1,1.6l7.9,58.4l-4,59.2c0,0.3,0,0.6,0,0.8c0,6.6,5.4,12,12,12h136c6.6,0,12-5.4,12-12
			c0-0.3,0-0.5,0-0.8l-4-59.2l7.9-58.4C-29,350.1-29,349.6-29,349z"/>
	</defs>
	<clipPath id="SVGID_11_">
		<use xlink:href="#SVGID_10_"  overflow="visible"/>
	</clipPath>
	<path clip-path="url(#SVGID_11_)" fill="#FFFFFF" fill-opacity="0.2" d="M-185,338h144c6.5,0,11.8,5.2,12,11.6c0-0.2,0-0.4,0-0.6
		c0-6.6-5.4-12-12-12h-144c-6.6,0-12,5.4-12,12c0,0.2,0,0.4,0,0.6C-196.8,343.2-191.5,338-185,338z"/>
</g>
<g>
	<defs>
		<path id="SVGID_12_" d="M-29,349c0-5.2-3.3-9.6-8-11.3V325c0-6.6-5.4-12-12-12h-128c-6.6,0-12,5.4-12,12l0,12.7
			c-4.7,1.6-8,6.1-8,11.3c0,0.6,0,1.1,0.1,1.6l7.9,58.4l-4,59.2c0,0.3,0,0.6,0,0.8c0,6.6,5.4,12,12,12h136c6.6,0,12-5.4,12-12
			c0-0.3,0-0.5,0-0.8l-4-59.2l7.9-58.4C-29,350.1-29,349.6-29,349z"/>
	</defs>
	<clipPath id="SVGID_13_">
		<use xlink:href="#SVGID_12_"  overflow="visible"/>
	</clipPath>
	<path clip-path="url(#SVGID_13_)" fill="#1A237E" fill-opacity="0.2" d="M-45,480h-136c-6.5,0-11.8-5.2-12-11.6c0,0.2,0,0.4,0,0.6
		c0,6.6,5.4,12,12,12h136c6.6,0,12-5.4,12-12c0-0.2,0-0.4,0-0.6C-33.2,474.8-38.5,480-45,480z"/>
</g>
<g>
	<defs>
		<path id="SVGID_14_" d="M-29,349c0-5.2-3.3-9.6-8-11.3V325c0-6.6-5.4-12-12-12h-128c-6.6,0-12,5.4-12,12l0,12.7
			c-4.7,1.6-8,6.1-8,11.3c0,0.6,0,1.1,0.1,1.6l7.9,58.4l-4,59.2c0,0.3,0,0.6,0,0.8c0,6.6,5.4,12,12,12h136c6.6,0,12-5.4,12-12
			c0-0.3,0-0.5,0-0.8l-4-59.2l7.9-58.4C-29,350.1-29,349.6-29,349z"/>
	</defs>
	<clipPath id="SVGID_15_">
		<use xlink:href="#SVGID_14_"  overflow="visible"/>
	</clipPath>
	<path clip-path="url(#SVGID_15_)" fill="#FFFFFF" fill-opacity="0.2" d="M-49,313h-128c-6.6,0-12,5.4-12,12v1c0-6.6,5.4-12,12-12
		h128c6.6,0,12,5.4,12,12v-1C-37,318.4-42.4,313-49,313z"/>
</g>
<g>
	<defs>
		<path id="SVGID_16_" d="M-29,349c0-5.2-3.3-9.6-8-11.3V325c0-6.6-5.4-12-12-12h-128c-6.6,0-12,5.4-12,12l0,12.7
			c-4.7,1.6-8,6.1-8,11.3c0,0.6,0,1.1,0.1,1.6l7.9,58.4l-4,59.2c0,0.3,0,0.6,0,0.8c0,6.6,5.4,12,12,12h136c6.6,0,12-5.4,12-12
			c0-0.3,0-0.5,0-0.8l-4-59.2l7.9-58.4C-29,350.1-29,349.6-29,349z"/>
	</defs>
	<clipPath id="SVGID_17_">
		<use xlink:href="#SVGID_16_"  overflow="visible"/>
	</clipPath>
	<g clip-path="url(#SVGID_17_)">
		<g>
			<defs>
				<path id="SVGID_18_" d="M-41,337h-144c-6.6,0-12,5.4-12,12c0,0.6,0,1.1,0.1,1.6l7.9,58.4h152l7.9-58.4c0.1-0.5,0.1-1.1,0.1-1.6
					C-29,342.4-34.4,337-41,337z"/>
			</defs>
			<clipPath id="SVGID_19_">
				<use xlink:href="#SVGID_18_"  overflow="visible"/>
			</clipPath>
			<g clip-path="url(#SVGID_19_)">
				<path fill="#E1E1E1" d="M-76.4,373l-25.6,9v8.1l18-6V445h9v-72H-76.4z M-126.1,408.1c4.8-2,11-7.3,11-15.3
					c0-12.3-7.9-19.8-21.2-19.8c-11.9,0-21.6,7.9-21.6,19.4h8.6c0-6.7,4.5-12.3,13-12.3c8,0,12.6,4.2,12.6,12.6S-130.1,405-138,405
					h-6v6.7h6c11.6,0,15.4,6,15.4,13c0,9.1-5.5,13.3-13.6,13.3c-7.1,0-13.6-3.8-13.6-12.5h-8.6c0.1,13.8,11.6,19.5,22.2,19.5
					c12.2,0,22.2-7.1,22.2-20.5C-114,413.7-121.7,409.4-126.1,408.1z"/>
				<path opacity="0.5" fill="#C2C2C2" enable-background="new    " d="M-76.4,373l-25.6,9v8.1l18-6V445h9v-72H-76.4z M-126.1,408.1
					c4.8-2,11-7.3,11-15.3c0-12.3-7.9-19.8-21.2-19.8c-11.9,0-21.6,7.9-21.6,19.4h8.6c0-6.7,4.5-12.3,13-12.3
					c8,0,12.6,4.2,12.6,12.6S-130.1,405-138,405h-6v6.7h6c11.6,0,15.4,6,15.4,13c0,9.1-5.5,13.3-13.6,13.3
					c-7.1,0-13.6-3.8-13.6-12.5h-8.6c0.1,13.8,11.6,19.5,22.2,19.5c12.2,0,22.2-7.1,22.2-20.5C-114,413.7-121.7,409.4-126.1,408.1z"
					/>
			</g>
		</g>
		<g>
			<defs>
				<path id="SVGID_20_" d="M-29,349c0-5.2-3.3-9.6-8-11.3V325c0-6.6-5.4-12-12-12h-128c-6.6,0-12,5.4-12,12l0,12.7
					c-4.7,1.6-8,6.1-8,11.3c0,0.6,0,1.1,0.1,1.6l7.9,58.4l-4,59.2c0,0.3,0,0.6,0,0.8c0,6.6,5.4,12,12,12h136c6.6,0,12-5.4,12-12
					c0-0.3,0-0.5,0-0.8l-4-59.2l7.9-58.4C-29,350.1-29,349.6-29,349z"/>
			</defs>
			<clipPath id="SVGID_21_">
				<use xlink:href="#SVGID_20_"  overflow="visible"/>
			</clipPath>
			<g clip-path="url(#SVGID_21_)">
				<g>
					<defs>
						<path id="SVGID_22_" d="M-33,468.2l-4-59.2h-152l-4,59.2c0,0.3,0,0.6,0,0.8c0,6.6,5.4,12,12,12h136c6.6,0,12-5.4,12-12
							C-33,468.7-33,468.5-33,468.2z"/>
					</defs>
					<clipPath id="SVGID_23_">
						<use xlink:href="#SVGID_22_"  overflow="visible"/>
					</clipPath>
					<path clip-path="url(#SVGID_23_)" fill="#EEEEEE" d="M-76.4,373l-25.6,9v8.1l18-6V445h9v-72H-76.4z M-126.1,408.1
						c4.8-2,11-7.3,11-15.3c0-12.3-7.9-19.8-21.2-19.8c-11.9,0-21.6,7.9-21.6,19.4h8.6c0-6.7,4.5-12.3,13-12.3
						c8,0,12.6,4.2,12.6,12.6S-130.1,405-138,405h-6v6.7h6c11.6,0,15.4,6,15.4,13c0,9.1-5.5,13.3-13.6,13.3
						c-7.1,0-13.6-3.8-13.6-12.5h-8.6c0.1,13.8,11.6,19.5,22.2,19.5c12.2,0,22.2-7.1,22.2-20.5C-114,413.7-121.7,409.4-126.1,408.1z
						"/>
				</g>
				<g>
					<defs>
						<path id="SVGID_24_" d="M-29,349c0-5.2-3.3-9.6-8-11.3V325c0-6.6-5.4-12-12-12h-128c-6.6,0-12,5.4-12,12l0,12.7
							c-4.7,1.6-8,6.1-8,11.3c0,0.6,0,1.1,0.1,1.6l7.9,58.4l-4,59.2c0,0.3,0,0.6,0,0.8c0,6.6,5.4,12,12,12h136c6.6,0,12-5.4,12-12
							c0-0.3,0-0.5,0-0.8l-4-59.2l7.9-58.4C-29,350.1-29,349.6-29,349z"/>
					</defs>
					<clipPath id="SVGID_25_">
						<use xlink:href="#SVGID_24_"  overflow="visible"/>
					</clipPath>
					<g clip-path="url(#SVGID_25_)">
						
							<linearGradient id="SVGID_26_" gradientUnits="userSpaceOnUse" x1="-151.0705" y1="471.0755" x2="-143.2905" y2="463.2955" gradientTransform="matrix(1 0 0 -1 0 796)">
							<stop  offset="0" style="stop-color:#212121;stop-opacity:0.2"/>
							<stop  offset="1" style="stop-color:#212121;stop-opacity:2.000000e-02"/>
						</linearGradient>
						<path fill="url(#SVGID_26_)" d="M-147.5,337l-7.8-7.8l8.5-8.5l16.2,16.2H-147.5z"/>
						<circle fill="#EEEEEE" cx="-151" cy="325" r="6"/>
						<path fill="#FFFFFF" fill-opacity="0.4" d="M-151,320c3.1,0,5.7,2.4,6,5.5c0-0.2,0-0.3,0-0.5c0-3.3-2.7-6-6-6s-6,2.7-6,6
							c0,0.2,0,0.3,0,0.5C-156.7,322.4-154.1,320-151,320z"/>
						<path fill="#212121" fill-opacity="0.1" d="M-145,325.5c-0.2,3.1-2.8,5.5-6,5.5s-5.7-2.4-6-5.5c0,0.2,0,0.3,0,0.5
							c0,3.3,2.7,6,6,6s6-2.7,6-6C-145,325.8-145,325.7-145,325.5z"/>
					</g>
				</g>
				<g>
					<defs>
						<path id="SVGID_27_" d="M-29,349c0-5.2-3.3-9.6-8-11.3V325c0-6.6-5.4-12-12-12h-128c-6.6,0-12,5.4-12,12l0,12.7
							c-4.7,1.6-8,6.1-8,11.3c0,0.6,0,1.1,0.1,1.6l7.9,58.4l-4,59.2c0,0.3,0,0.6,0,0.8c0,6.6,5.4,12,12,12h136c6.6,0,12-5.4,12-12
							c0-0.3,0-0.5,0-0.8l-4-59.2l7.9-58.4C-29,350.1-29,349.6-29,349z"/>
					</defs>
					<clipPath id="SVGID_28_">
						<use xlink:href="#SVGID_27_"  overflow="visible"/>
					</clipPath>
					<g clip-path="url(#SVGID_28_)">
						<path fill="#FFFFFF" fill-opacity="5.000000e-02" d="M-190,409h154v1h-154V409z"/>
						<path fill="#1A237E" fill-opacity="5.000000e-02" d="M-190,408h154v1h-154V408z"/>
					</g>
				</g>
				<g>
					<defs>
						<path id="SVGID_29_" d="M-29,349c0-5.2-3.3-9.6-8-11.3V325c0-6.6-5.4-12-12-12h-128c-6.6,0-12,5.4-12,12l0,12.7
							c-4.7,1.6-8,6.1-8,11.3c0,0.6,0,1.1,0.1,1.6l7.9,58.4l-4,59.2c0,0.3,0,0.6,0,0.8c0,6.6,5.4,12,12,12h136c6.6,0,12-5.4,12-12
							c0-0.3,0-0.5,0-0.8l-4-59.2l7.9-58.4C-29,350.1-29,349.6-29,349z"/>
					</defs>
					<clipPath id="SVGID_30_">
						<use xlink:href="#SVGID_29_"  overflow="visible"/>
					</clipPath>
					<g clip-path="url(#SVGID_30_)">
						
							<linearGradient id="SVGID_31_" gradientUnits="userSpaceOnUse" x1="-75.0705" y1="471.0755" x2="-67.2905" y2="463.2955" gradientTransform="matrix(1 0 0 -1 0 796)">
							<stop  offset="0" style="stop-color:#212121;stop-opacity:0.2"/>
							<stop  offset="1" style="stop-color:#212121;stop-opacity:2.000000e-02"/>
						</linearGradient>
						<path fill="url(#SVGID_31_)" d="M-71.5,337l-7.8-7.8l8.5-8.5l16.2,16.2H-71.5z"/>
						<circle fill="#EEEEEE" cx="-75" cy="325" r="6"/>
						<path fill="#FFFFFF" fill-opacity="0.4" d="M-75,320c3.1,0,5.7,2.4,6,5.5c0-0.2,0-0.3,0-0.5c0-3.3-2.7-6-6-6s-6,2.7-6,6
							c0,0.2,0,0.3,0,0.5C-80.7,322.4-78.1,320-75,320z"/>
						<path fill="#212121" fill-opacity="0.1" d="M-69,325.5c-0.2,3.1-2.8,5.5-6,5.5s-5.7-2.4-6-5.5c0,0.2,0,0.3,0,0.5
							c0,3.3,2.7,6,6,6s6-2.7,6-6C-69,325.8-69,325.7-69,325.5z"/>
					</g>
				</g>
				
					<radialGradient id="SVGID_32_" cx="-185.439" cy="479.281" r="218.59" gradientTransform="matrix(1 0 0 -1 0 796)" gradientUnits="userSpaceOnUse">
					<stop  offset="0.33" style="stop-color:#FFFFFF"/>
					<stop  offset="1" style="stop-color:#FFFFFF;stop-opacity:0"/>
				</radialGradient>
				<path fill="url(#SVGID_32_)" fill-opacity="5.000000e-02" d="M-29,349c0-5.2-3.3-9.6-8-11.3V325c0-6.6-5.4-12-12-12h-128
					c-6.6,0-12,5.4-12,12l0,12.7c-4.7,1.6-8,6.1-8,11.3c0,0.6,0,1.1,0.1,1.6l7.9,58.4l-4,59.2c0,0.3,0,0.6,0,0.8c0,6.6,5.4,12,12,12
					h136c6.6,0,12-5.4,12-12c0-0.3,0-0.5,0-0.8l-4-59.2l7.9-58.4C-29,350.1-29,349.6-29,349z"/>
			</g>
		</g>
	</g>
</g>
</svg>
